<svg xmlns="http://www.w3.org/2000/svg" version="1.1" xmlns:xlink="http://www.w3.org/1999/xlink" xmlns:svgjs="http://svgjs.dev/svgjs" width="1440" height="560" preserveAspectRatio="none" viewBox="0 0 1440 560">
    <g mask="url(&quot;#SvgjsMask1000&quot;)" fill="none">
        <rect width="1440" height="560" x="0" y="0" fill="#0e2a47"></rect>
        <path d="M17.64 -30.11L82.59 7.39L82.59 82.39L17.64 119.89L-47.31 82.39L-47.31 7.39zM17.64 419.89L82.59 457.39L82.59 532.39L17.64 569.89L-47.31 532.39L-47.31 457.39zM212.5 307.39L277.45 344.89L277.45 419.89L212.5 457.39L147.55 419.89L147.55 344.89zM407.36 194.89L472.32 232.39L472.32 307.39L407.36 344.89L342.41 307.39L342.41 232.39zM537.27 194.89L602.22 232.39L602.22 307.39L537.27 344.89L472.32 307.39L472.32 232.39zM732.13 532.39L797.09 569.89L797.09 644.89L732.13 682.39L667.18 644.89L667.18 569.89zM797.08 419.89L862.04 457.39L862.04 532.39L797.08 569.89L732.13 532.39L732.13 457.39zM991.95 82.39L1056.9 119.89L1056.9 194.89L991.95 232.39L926.99 194.89L926.99 119.89zM1121.85 532.39L1186.81 569.89L1186.81 644.89L1121.85 682.39L1056.9 644.89L1056.9 569.89zM1251.76 82.39L1316.71 119.89L1316.71 194.89L1251.76 232.39L1186.81 194.89L1186.81 119.89zM1251.76 307.39L1316.71 344.89L1316.71 419.89L1251.76 457.39L1186.81 419.89L1186.81 344.89zM1511.58 307.39L1576.53 344.89L1576.53 419.89L1511.58 457.39L1446.62 419.89L1446.62 344.89z" stroke="#03305d" stroke-width="2"></path>
        <path d="M10.14 -30.11 a7.5 7.5 0 1 0 15 0 a7.5 7.5 0 1 0 -15 0zM75.09 7.39 a7.5 7.5 0 1 0 15 0 a7.5 7.5 0 1 0 -15 0zM75.09 82.39 a7.5 7.5 0 1 0 15 0 a7.5 7.5 0 1 0 -15 0zM10.14 119.89 a7.5 7.5 0 1 0 15 0 a7.5 7.5 0 1 0 -15 0zM-54.81 82.39 a7.5 7.5 0 1 0 15 0 a7.5 7.5 0 1 0 -15 0zM-54.81 7.39 a7.5 7.5 0 1 0 15 0 a7.5 7.5 0 1 0 -15 0zM10.14 419.89 a7.5 7.5 0 1 0 15 0 a7.5 7.5 0 1 0 -15 0zM75.09 457.39 a7.5 7.5 0 1 0 15 0 a7.5 7.5 0 1 0 -15 0zM75.09 532.39 a7.5 7.5 0 1 0 15 0 a7.5 7.5 0 1 0 -15 0zM10.14 569.89 a7.5 7.5 0 1 0 15 0 a7.5 7.5 0 1 0 -15 0zM-54.81 532.39 a7.5 7.5 0 1 0 15 0 a7.5 7.5 0 1 0 -15 0zM-54.81 457.39 a7.5 7.5 0 1 0 15 0 a7.5 7.5 0 1 0 -15 0zM205 307.39 a7.5 7.5 0 1 0 15 0 a7.5 7.5 0 1 0 -15 0zM269.95 344.89 a7.5 7.5 0 1 0 15 0 a7.5 7.5 0 1 0 -15 0zM269.95 419.89 a7.5 7.5 0 1 0 15 0 a7.5 7.5 0 1 0 -15 0zM205 457.39 a7.5 7.5 0 1 0 15 0 a7.5 7.5 0 1 0 -15 0zM140.05 419.89 a7.5 7.5 0 1 0 15 0 a7.5 7.5 0 1 0 -15 0zM140.05 344.89 a7.5 7.5 0 1 0 15 0 a7.5 7.5 0 1 0 -15 0zM399.86 194.89 a7.5 7.5 0 1 0 15 0 a7.5 7.5 0 1 0 -15 0zM464.82 232.39 a7.5 7.5 0 1 0 15 0 a7.5 7.5 0 1 0 -15 0zM464.82 307.39 a7.5 7.5 0 1 0 15 0 a7.5 7.5 0 1 0 -15 0zM399.86 344.89 a7.5 7.5 0 1 0 15 0 a7.5 7.5 0 1 0 -15 0zM334.91 307.39 a7.5 7.5 0 1 0 15 0 a7.5 7.5 0 1 0 -15 0zM334.91 232.39 a7.5 7.5 0 1 0 15 0 a7.5 7.5 0 1 0 -15 0zM529.77 194.89 a7.5 7.5 0 1 0 15 0 a7.5 7.5 0 1 0 -15 0zM594.72 232.39 a7.5 7.5 0 1 0 15 0 a7.5 7.5 0 1 0 -15 0zM594.72 307.39 a7.5 7.5 0 1 0 15 0 a7.5 7.5 0 1 0 -15 0zM529.77 344.89 a7.5 7.5 0 1 0 15 0 a7.5 7.5 0 1 0 -15 0zM724.63 532.39 a7.5 7.5 0 1 0 15 0 a7.5 7.5 0 1 0 -15 0zM789.59 569.89 a7.5 7.5 0 1 0 15 0 a7.5 7.5 0 1 0 -15 0zM789.59 644.89 a7.5 7.5 0 1 0 15 0 a7.5 7.5 0 1 0 -15 0zM724.63 682.39 a7.5 7.5 0 1 0 15 0 a7.5 7.5 0 1 0 -15 0zM659.68 644.89 a7.5 7.5 0 1 0 15 0 a7.5 7.5 0 1 0 -15 0zM659.68 569.89 a7.5 7.5 0 1 0 15 0 a7.5 7.5 0 1 0 -15 0zM789.58 419.89 a7.5 7.5 0 1 0 15 0 a7.5 7.5 0 1 0 -15 0zM854.54 457.39 a7.5 7.5 0 1 0 15 0 a7.5 7.5 0 1 0 -15 0zM854.54 532.39 a7.5 7.5 0 1 0 15 0 a7.5 7.5 0 1 0 -15 0zM789.58 569.89 a7.5 7.5 0 1 0 15 0 a7.5 7.5 0 1 0 -15 0zM724.63 457.39 a7.5 7.5 0 1 0 15 0 a7.5 7.5 0 1 0 -15 0zM984.45 82.39 a7.5 7.5 0 1 0 15 0 a7.5 7.5 0 1 0 -15 0zM1049.4 119.89 a7.5 7.5 0 1 0 15 0 a7.5 7.5 0 1 0 -15 0zM1049.4 194.89 a7.5 7.5 0 1 0 15 0 a7.5 7.5 0 1 0 -15 0zM984.45 232.39 a7.5 7.5 0 1 0 15 0 a7.5 7.5 0 1 0 -15 0zM919.49 194.89 a7.5 7.5 0 1 0 15 0 a7.5 7.5 0 1 0 -15 0zM919.49 119.89 a7.5 7.5 0 1 0 15 0 a7.5 7.5 0 1 0 -15 0zM1114.35 532.39 a7.5 7.5 0 1 0 15 0 a7.5 7.5 0 1 0 -15 0zM1179.31 569.89 a7.5 7.5 0 1 0 15 0 a7.5 7.5 0 1 0 -15 0zM1179.31 644.89 a7.5 7.5 0 1 0 15 0 a7.5 7.5 0 1 0 -15 0zM1114.35 682.39 a7.5 7.5 0 1 0 15 0 a7.5 7.5 0 1 0 -15 0zM1049.4 644.89 a7.5 7.5 0 1 0 15 0 a7.5 7.5 0 1 0 -15 0zM1049.4 569.89 a7.5 7.5 0 1 0 15 0 a7.5 7.5 0 1 0 -15 0zM1244.26 82.39 a7.5 7.5 0 1 0 15 0 a7.5 7.5 0 1 0 -15 0zM1309.21 119.89 a7.5 7.5 0 1 0 15 0 a7.5 7.5 0 1 0 -15 0zM1309.21 194.89 a7.5 7.5 0 1 0 15 0 a7.5 7.5 0 1 0 -15 0zM1244.26 232.39 a7.5 7.5 0 1 0 15 0 a7.5 7.5 0 1 0 -15 0zM1179.31 194.89 a7.5 7.5 0 1 0 15 0 a7.5 7.5 0 1 0 -15 0zM1179.31 119.89 a7.5 7.5 0 1 0 15 0 a7.5 7.5 0 1 0 -15 0zM1244.26 307.39 a7.5 7.5 0 1 0 15 0 a7.5 7.5 0 1 0 -15 0zM1309.21 344.89 a7.5 7.5 0 1 0 15 0 a7.5 7.5 0 1 0 -15 0zM1309.21 419.89 a7.5 7.5 0 1 0 15 0 a7.5 7.5 0 1 0 -15 0zM1244.26 457.39 a7.5 7.5 0 1 0 15 0 a7.5 7.5 0 1 0 -15 0zM1179.31 419.89 a7.5 7.5 0 1 0 15 0 a7.5 7.5 0 1 0 -15 0zM1179.31 344.89 a7.5 7.5 0 1 0 15 0 a7.5 7.5 0 1 0 -15 0zM1504.08 307.39 a7.5 7.5 0 1 0 15 0 a7.5 7.5 0 1 0 -15 0zM1569.03 344.89 a7.5 7.5 0 1 0 15 0 a7.5 7.5 0 1 0 -15 0zM1569.03 419.89 a7.5 7.5 0 1 0 15 0 a7.5 7.5 0 1 0 -15 0zM1504.08 457.39 a7.5 7.5 0 1 0 15 0 a7.5 7.5 0 1 0 -15 0zM1439.12 419.89 a7.5 7.5 0 1 0 15 0 a7.5 7.5 0 1 0 -15 0zM1439.12 344.89 a7.5 7.5 0 1 0 15 0 a7.5 7.5 0 1 0 -15 0z" fill="#03305d"></path>
        <path d="M46.13 -34.38L89.43 -9.38L89.43 40.62L46.13 65.62L2.83 40.62L2.83 -9.38zM89.43 40.62L132.74 65.62L132.74 115.62L89.43 140.62L46.13 115.62L46.13 65.62zM46.13 115.62L89.43 140.62L89.43 190.62L46.13 215.62L2.83 190.62L2.83 140.62zM89.43 190.62L132.74 215.62L132.74 265.62L89.43 290.62L46.13 265.62L46.13 215.62zM46.13 415.62L89.43 440.62L89.43 490.62L46.13 515.62L2.83 490.62L2.83 440.62zM176.04 40.62L219.34 65.62L219.34 115.62L176.04 140.62L132.74 115.62L132.74 65.62zM176.04 340.62L219.34 365.62L219.34 415.62L176.04 440.62L132.74 415.62L132.74 365.62zM219.34 -34.38L262.64 -9.38L262.64 40.62L219.34 65.62L176.04 40.62L176.04 -9.38zM262.64 40.62L305.94 65.62L305.94 115.62L262.64 140.62L219.34 115.62L219.34 65.62zM219.34 115.62L262.64 140.62L262.64 190.62L219.34 215.62L176.04 190.62L176.04 140.62zM262.64 190.62L305.94 215.62L305.94 265.62L262.64 290.62L219.34 265.62L219.34 215.62zM219.34 265.62L262.64 290.62L262.64 340.62L219.34 365.62L176.04 340.62L176.04 290.62zM305.94 115.62L349.25 140.62L349.25 190.62L305.94 215.62L262.64 190.62L262.64 140.62zM305.94 415.62L349.25 440.62L349.25 490.62L305.94 515.62L262.64 490.62L262.64 440.62zM349.25 490.62L392.55 515.62L392.55 565.62L349.25 590.62L305.94 565.62L305.94 515.62zM435.85 190.62L479.16 215.62L479.16 265.62L435.85 290.62L392.55 265.62L392.55 215.62zM392.55 265.62L435.85 290.62L435.85 340.62L392.55 365.62L349.25 340.62L349.25 290.62zM392.55 415.62L435.85 440.62L435.85 490.62L392.55 515.62L349.25 490.62L349.25 440.62zM479.16 -34.38L522.46 -9.38L522.46 40.62L479.16 65.62L435.85 40.62L435.85 -9.38zM479.16 115.62L522.46 140.62L522.46 190.62L479.16 215.62L435.85 190.62L435.85 140.62zM479.16 415.62L522.46 440.62L522.46 490.62L479.16 515.62L435.85 490.62L435.85 440.62zM565.76 -34.38L609.06 -9.38L609.06 40.62L565.76 65.62L522.46 40.62L522.46 -9.38zM609.06 40.62L652.37 65.62L652.37 115.62L609.06 140.62L565.76 115.62L565.76 65.62zM565.76 265.62L609.06 290.62L609.06 340.62L565.76 365.62L522.46 340.62L522.46 290.62zM609.06 340.62L652.37 365.62L652.37 415.62L609.06 440.62L565.76 415.62L565.76 365.62zM565.76 415.62L609.06 440.62L609.06 490.62L565.76 515.62L522.46 490.62L522.46 440.62zM695.67 40.62L738.97 65.62L738.97 115.62L695.67 140.62L652.37 115.62L652.37 65.62zM695.67 190.62L738.97 215.62L738.97 265.62L695.67 290.62L652.37 265.62L652.37 215.62zM652.37 265.62L695.67 290.62L695.67 340.62L652.37 365.62L609.06 340.62L609.06 290.62zM695.67 340.62L738.97 365.62L738.97 415.62L695.67 440.62L652.37 415.62L652.37 365.62zM652.37 415.62L695.67 440.62L695.67 490.62L652.37 515.62L609.06 490.62L609.06 440.62zM782.27 40.62L825.58 65.62L825.58 115.62L782.27 140.62L738.97 115.62L738.97 65.62zM738.97 265.62L782.27 290.62L782.27 340.62L738.97 365.62L695.67 340.62L695.67 290.62zM782.27 340.62L825.58 365.62L825.58 415.62L782.27 440.62L738.97 415.62L738.97 365.62zM738.97 415.62L782.27 440.62L782.27 490.62L738.97 515.62L695.67 490.62L695.67 440.62zM868.88 190.62L912.18 215.62L912.18 265.62L868.88 290.62L825.58 265.62L825.58 215.62zM825.58 415.62L868.88 440.62L868.88 490.62L825.58 515.62L782.27 490.62L782.27 440.62zM868.88 490.62L912.18 515.62L912.18 565.62L868.88 590.62L825.58 565.62L825.58 515.62zM998.79 -34.38L1042.09 -9.38L1042.09 40.62L998.79 65.62L955.48 40.62L955.48 -9.38zM1042.09 40.62L1085.39 65.62L1085.39 115.62L1042.09 140.62L998.79 115.62L998.79 65.62zM998.79 115.62L1042.09 140.62L1042.09 190.62L998.79 215.62L955.48 190.62L955.48 140.62zM998.79 415.62L1042.09 440.62L1042.09 490.62L998.79 515.62L955.48 490.62L955.48 440.62zM1042.09 490.62L1085.39 515.62L1085.39 565.62L1042.09 590.62L998.79 565.62L998.79 515.62zM1085.39 -34.38L1128.69 -9.38L1128.69 40.62L1085.39 65.62L1042.09 40.62L1042.09 -9.38zM1128.69 190.62L1172 215.62L1172 265.62L1128.69 290.62L1085.39 265.62L1085.39 215.62zM1128.69 340.62L1172 365.62L1172 415.62L1128.69 440.62L1085.39 415.62L1085.39 365.62zM1172 -34.38L1215.3 -9.38L1215.3 40.62L1172 65.62L1128.69 40.62L1128.69 -9.38zM1215.3 40.62L1258.6 65.62L1258.6 115.62L1215.3 140.62L1172 115.62L1172 65.62zM1172 115.62L1215.3 140.62L1215.3 190.62L1172 215.62L1128.69 190.62L1128.69 140.62zM1215.3 190.62L1258.6 215.62L1258.6 265.62L1215.3 290.62L1172 265.62L1172 215.62zM1215.3 340.62L1258.6 365.62L1258.6 415.62L1215.3 440.62L1172 415.62L1172 365.62zM1215.3 490.62L1258.6 515.62L1258.6 565.62L1215.3 590.62L1172 565.62L1172 515.62zM1301.9 40.62L1345.21 65.62L1345.21 115.62L1301.9 140.62L1258.6 115.62L1258.6 65.62zM1301.9 340.62L1345.21 365.62L1345.21 415.62L1301.9 440.62L1258.6 415.62L1258.6 365.62zM1301.9 490.62L1345.21 515.62L1345.21 565.62L1301.9 590.62L1258.6 565.62L1258.6 515.62zM1388.51 40.62L1431.81 65.62L1431.81 115.62L1388.51 140.62L1345.21 115.62L1345.21 65.62zM1388.51 190.62L1431.81 215.62L1431.81 265.62L1388.51 290.62L1345.21 265.62L1345.21 215.62zM1345.21 265.62L1388.51 290.62L1388.51 340.62L1345.21 365.62L1301.9 340.62L1301.9 290.62zM1345.21 415.62L1388.51 440.62L1388.51 490.62L1345.21 515.62L1301.9 490.62L1301.9 440.62zM1388.51 490.62L1431.81 515.62L1431.81 565.62L1388.51 590.62L1345.21 565.62L1345.21 515.62zM1431.81 115.62L1475.11 140.62L1475.11 190.62L1431.81 215.62L1388.51 190.62L1388.51 140.62zM1475.11 340.62L1518.42 365.62L1518.42 415.62L1475.11 440.62L1431.81 415.62L1431.81 365.62z" stroke="rgba(6, 80, 156, 0.93)" stroke-width="2"></path>
    </g>
    <defs>
        <mask id="SvgjsMask1000">
            <rect width="1440" height="560" fill="#ffffff"></rect>
        </mask>
    </defs>
</svg>